<svg width="488" height="412" viewBox="0 0 488 412" fill="none" xmlns="http://www.w3.org/2000/svg">
<path opacity="0.939848" fill-rule="evenodd" clip-rule="evenodd" d="M439.094 217.276C439.094 324.818 351.981 412 244.523 412C137.063 412 49.9499 324.818 49.9499 217.276C49.9499 109.734 137.063 22.5525 244.523 22.5525C351.981 22.5525 439.094 109.734 439.094 217.276Z" fill="#A7C1C8"/>
<mask id="mask0" mask-type="alpha" maskUnits="userSpaceOnUse" x="0" y="0" width="488" height="399">
<path fill-rule="evenodd" clip-rule="evenodd" d="M0 0.616699H487.822V398.5H0V0.616699Z" fill="white"/>
</mask>
<g mask="url(#mask0)">
<path opacity="0.676107" fill-rule="evenodd" clip-rule="evenodd" d="M480.639 235.335C466.455 208.645 463.989 177.17 473.883 148.167C480.293 129.376 481.295 100.349 476.005 81.0871C459.007 19.2037 380.396 -17.6669 304.597 9.88096C235.1 35.1386 218.084 139.347 164.721 128.018C39.212 101.374 -5.99379 190.904 0.62677 263.787C4.90314 310.865 44.3559 369.093 128.631 362.979C153.443 361.179 177.811 367.283 198.81 379.436C234.67 400.191 291.667 405.057 350.88 388.769C439.944 364.268 500.274 301.191 485.632 247.883C484.428 243.493 482.751 239.308 480.639 235.335Z" fill="#95A1CC"/>
</g>
<path d="M313.226 229.097H326.29V216.032H313.226C306.021 216.032 300.161 210.173 300.161 202.968H287.097C287.097 217.378 298.816 229.097 313.226 229.097Z" fill="#F1F1F1"/>
<path d="M449.489 276.39C445.818 269.956 443.871 262.64 443.871 255.226C443.871 247.812 445.818 240.496 449.489 234.061L458.255 218.717C465.937 205.28 470 189.988 470 174.507C470 125.365 430.023 85.3871 380.88 85.3871H306.694C304.486 85.3871 302.317 85.5243 300.161 85.7202V24.7612L274.032 31.2935V7H260.968V34.5596L247.903 37.8257V20.0645H234.839V41.0919L208.71 47.6241V111.516H221.774V83.9565L287.097 67.6259V88.1764C282.537 89.4698 278.174 91.2008 274.032 93.3238V85.3871H260.968V101.855C245.023 115.044 234.839 134.973 234.839 157.242C234.839 168.046 243.631 176.839 254.436 176.839H260.968V210.617C260.968 220.788 257.009 230.351 249.817 237.543C247.263 240.097 247.263 244.225 249.817 246.78L259.054 256.016C260.288 257.251 260.968 258.897 260.968 260.641V287.887C260.968 313.102 281.486 333.613 306.694 333.613H326.29V350.107C303.493 358.2 287.097 379.927 287.097 405.468V412H417.742V396.029L440.722 381.671C459.052 370.207 470 350.453 470 328.831C470 318.007 467.159 307.314 461.789 297.921L449.489 276.39ZM221.774 70.487V57.8275L287.097 41.4969V54.1564L221.774 70.487ZM274.032 210.617V176.839H338.159C353.229 176.839 365.484 189.093 365.484 204.157C365.484 210.336 363.361 216.398 359.494 221.225L349.656 233.532C346.756 237.151 344.542 241.221 342.837 245.493L318.497 255.226H273.183C272.275 252.077 270.668 249.157 268.29 246.78L263.385 241.874C270.289 232.957 274.032 222.075 274.032 210.617ZM274.032 287.887V268.29H313.226V320.548H306.694C288.684 320.548 274.032 305.897 274.032 287.887ZM339.355 333.613H352.419V320.548H326.29V266.18L339.525 260.889C339.499 261.556 339.355 262.215 339.355 262.882C339.355 280.793 349.304 296.902 365.334 304.91C373.486 308.986 378.548 317.184 378.548 326.303V346.677H345.887C343.679 346.677 341.504 346.821 339.355 347.063V333.613ZM352.419 379.339V398.935H300.625C303.8 376.804 322.887 359.742 345.887 359.742H358.965C354.856 365.203 352.419 371.99 352.419 379.339ZM404.677 398.935H365.484V379.339C365.484 368.534 374.276 359.742 385.081 359.742C395.885 359.742 404.677 368.534 404.677 379.339V398.935ZM433.792 370.585L417.742 380.619V379.339C417.742 363.57 406.5 350.375 391.613 347.337V326.303C391.613 312.207 383.781 299.534 371.173 293.23C359.611 287.443 352.419 275.815 352.419 262.882C352.419 255.206 355.058 247.681 359.86 241.691L369.704 229.384C375.406 222.251 378.548 213.295 378.548 204.157C378.548 181.888 360.434 163.774 338.159 163.774H313.226C306.021 163.774 300.161 157.915 300.161 150.71C300.161 143.505 306.021 137.645 313.226 137.645V124.581C298.816 124.581 287.097 136.3 287.097 150.71C287.097 155.491 288.482 159.914 290.729 163.774H254.436C250.83 163.774 247.903 160.841 247.903 157.242C247.903 124.829 274.274 98.4516 306.694 98.4516H380.88C422.818 98.4516 456.936 132.57 456.936 174.507C456.936 187.721 453.473 200.766 446.915 212.237L438.149 227.581C433.348 235.982 430.806 245.538 430.806 255.226C430.806 264.913 433.348 274.47 438.149 282.87L450.449 304.394C454.688 311.821 456.936 320.267 456.936 328.825C456.936 345.92 448.287 361.525 433.792 370.585Z" fill="#F1F1F1"/>
<path d="M378.548 262.986C378.548 259.459 379.763 256.003 381.965 253.247L390.15 243.017C399.517 231.305 404.677 216.594 404.677 201.596C404.677 183.887 397.779 167.236 385.257 154.708L383.167 152.617L373.93 161.86L376.02 163.944C386.074 174.004 391.613 187.375 391.613 201.596C391.613 213.642 387.471 225.452 379.946 234.852L371.761 245.081C367.718 250.15 365.484 256.506 365.484 262.986C365.484 272.589 370.252 281.499 378.241 286.822L387.988 293.322L395.232 282.452L385.486 275.953C381.142 273.059 378.548 268.212 378.548 262.986Z" fill="#F1F1F1"/>
<path d="M425.783 293.224C420.603 288.037 417.742 281.146 417.742 273.804C417.742 270.844 418.212 267.924 419.146 265.122L423.934 250.758L411.549 246.623L406.755 260.987C405.37 265.129 404.677 269.44 404.677 273.804C404.677 284.634 408.897 294.811 416.546 302.461L420.949 306.863C427.305 313.226 430.806 321.672 430.806 330.66C430.806 335.853 429.578 341.06 427.253 345.711L424.96 350.29L436.646 356.136L438.939 351.55C442.166 345.097 443.871 337.872 443.871 330.66C443.871 318.184 439.011 306.452 430.186 297.627L425.783 293.224Z" fill="#F1F1F1"/>
<path d="M221.774 274.823C221.774 256.813 207.122 242.161 189.113 242.161C178.309 242.161 169.516 250.954 169.516 261.758C169.516 272.563 178.309 281.355 189.113 281.355H195.645V268.29H189.113C185.507 268.29 182.581 265.357 182.581 261.758C182.581 258.159 185.507 255.226 189.113 255.226C199.917 255.226 208.71 264.018 208.71 274.823C208.71 285.627 199.917 294.419 189.113 294.419H65V307.484H189.113C207.122 307.484 221.774 292.832 221.774 274.823Z" fill="#F1F1F1"/>
<path d="M228.306 320.548H91.129V333.613H228.306C239.111 333.613 247.903 342.405 247.903 353.21C247.903 364.014 239.111 372.806 228.306 372.806C224.701 372.806 221.774 369.873 221.774 366.274C221.774 362.675 224.701 359.742 228.306 359.742H234.839V346.677H228.306C217.502 346.677 208.71 355.47 208.71 366.274C208.71 377.078 217.502 385.871 228.306 385.871C246.316 385.871 260.968 371.219 260.968 353.21C260.968 335.2 246.316 320.548 228.306 320.548Z" fill="#F1F1F1"/>
<path d="M162.984 346.677H65V359.742H162.984C173.788 359.742 182.581 368.534 182.581 379.339C182.581 390.143 173.788 398.936 162.984 398.936C159.378 398.936 156.452 396.003 156.452 392.403C156.452 388.804 159.378 385.871 162.984 385.871H169.516V372.807H162.984C152.18 372.807 143.387 381.599 143.387 392.403C143.387 403.208 152.18 412 162.984 412C180.993 412 195.645 397.348 195.645 379.339C195.645 361.329 180.993 346.677 162.984 346.677Z" fill="#F1F1F1"/>
<path d="M182.581 111.516V139.076L169.516 142.342V124.581H156.452V145.608L130.323 152.14V281.355H143.387V188.473L208.71 172.142V229.097H221.774V129.277L195.645 135.81V111.516H182.581ZM208.71 158.672L143.387 175.003V162.344L208.71 146.013V158.672Z" fill="#F1F1F1"/>
<path d="M156.452 202.968H169.516V216.032H156.452V202.968Z" fill="#F1F1F1"/>
<path d="M182.581 202.968H195.645V216.032H182.581V202.968Z" fill="#F1F1F1"/>
<path d="M156.452 229.097H169.516V242.161H156.452V229.097Z" fill="#F1F1F1"/>
<path d="M78.0645 54.0649L169.516 71.2121V98.4516H182.581V60.3685L156.452 55.4694V33.129H143.387V53.0198L130.323 50.5702V7H117.258V48.1206L104.194 45.671V20.0645H91.129V43.2214L65 38.3222V281.355H78.0645V54.0649Z" fill="#F1F1F1"/>
<path d="M234.839 98.4517H247.903V111.516H234.839V98.4517Z" fill="#F1F1F1"/>
<path d="M91.129 85.3871H104.194V98.4516H91.129V85.3871Z" fill="#F1F1F1"/>
<path d="M117.258 85.3871H130.323V98.4516H117.258V85.3871Z" fill="#F1F1F1"/>
<path d="M91.129 111.516H104.194V124.581H91.129V111.516Z" fill="#F1F1F1"/>
<path d="M117.258 111.516H130.323V124.581H117.258V111.516Z" fill="#F1F1F1"/>
<path d="M91.129 137.645H104.194V150.71H91.129V137.645Z" fill="#F1F1F1"/>
<path d="M143.387 85.3871H156.452V98.4516H143.387V85.3871Z" fill="#F1F1F1"/>
</svg>
