<svg width="182" height="61" viewBox="0 0 182 61" fill="none" xmlns="http://www.w3.org/2000/svg">
<path d="M48.258 5.03894C45.3678 5.03894 42.5349 6.03543 40.2812 7.84482C39.5116 8.4628 39.3886 9.58749 40.0064 10.3571C40.6243 11.1267 41.7491 11.2499 42.5188 10.6319C44.1403 9.33003 46.1786 8.61316 48.258 8.61316C53.3132 8.61316 57.4258 12.7258 57.4258 17.7809C57.4258 22.836 53.313 26.9487 48.258 26.9487H14.6542C13.6672 26.9487 12.8671 27.7488 12.8671 28.7358C12.8671 29.7227 13.6672 30.5229 14.6542 30.5229H48.258C55.284 30.5229 61 24.8069 61 17.7809C61 10.755 55.2839 5.03894 48.258 5.03894Z" fill="#F1F1F1"/>
<path d="M11.2304 23.3865H30.3212C31.3083 23.3865 32.1083 22.5863 32.1083 21.5994C32.1083 20.6124 31.3083 19.8123 30.3212 19.8123H11.2304C10.2435 19.8123 9.44333 20.6124 9.44333 21.5994C9.44333 22.5863 10.2435 23.3865 11.2304 23.3865Z" fill="#F1F1F1"/>
<path d="M29.8203 34.1093H1.78711C0.800148 34.1093 0 34.9094 0 35.8964C0 36.8833 0.800148 37.6835 1.78711 37.6835H29.8203C33.8741 37.6835 37.1721 40.9814 37.1721 45.0352C37.1721 49.0889 33.8741 52.3869 29.8203 52.3869C28.1527 52.3869 26.5183 51.8119 25.2179 50.768C24.4484 50.1501 23.3236 50.2731 22.7056 51.0427C22.0876 51.8124 22.2107 52.9372 22.9803 53.555C24.9129 55.1065 27.3421 55.9609 29.8203 55.9609C35.8449 55.9609 40.7463 51.0596 40.7463 45.035C40.7463 39.0105 35.8449 34.1093 29.8203 34.1093Z" fill="#F1F1F1"/>
<path d="M1.78711 23.3865H4.19792C5.18488 23.3865 5.98503 22.5863 5.98503 21.5994C5.98503 20.6124 5.18488 19.8123 4.19792 19.8123H1.78711C0.800148 19.8123 0 20.6124 0 21.5994C0 22.5863 0.800148 23.3865 1.78711 23.3865Z" fill="#F1F1F1"/>
<path d="M23.3516 43.0099C23.3516 42.0229 22.5514 41.2228 21.5645 41.2228H10.8418C9.85484 41.2228 9.05469 42.0229 9.05469 43.0099C9.05469 43.9968 9.85484 44.797 10.8418 44.797H21.5645C22.5515 44.797 23.3516 43.9968 23.3516 43.0099Z" fill="#F1F1F1"/>
<path d="M99.8594 20.7656C100.927 20.7656 102.008 21.013 103.102 21.5078C104.195 22.0026 105.107 22.6667 105.836 23.5V21.2734H110.797V41H105.836V37.6797C105.263 38.7474 104.43 39.6719 103.336 40.4531C102.242 41.2083 100.966 41.5859 99.5078 41.5859C97.9193 41.5859 96.4479 41.1823 95.0938 40.375C93.7656 39.5677 92.6979 38.3958 91.8906 36.8594C91.0833 35.3229 90.6797 33.4609 90.6797 31.2734C90.6797 29.0859 91.0833 27.2109 91.8906 25.6484C92.724 24.0859 93.8307 22.888 95.2109 22.0547C96.6172 21.1953 98.1667 20.7656 99.8594 20.7656ZM100.875 25.6094C99.8333 25.6094 98.9349 25.8828 98.1797 26.4297C97.4505 26.9505 96.8776 27.6406 96.4609 28.5C96.0443 29.3594 95.8359 30.2839 95.8359 31.2734C95.8359 32.7578 96.2786 34.0208 97.1641 35.0625C98.0755 36.1042 99.2734 36.625 100.758 36.625C101.643 36.625 102.464 36.3906 103.219 35.9219C104 35.4531 104.625 34.8021 105.094 33.9688C105.589 33.1094 105.836 32.0807 105.836 30.8828V28.0703C105.133 27.3151 104.365 26.7161 103.531 26.2734C102.724 25.8307 101.839 25.6094 100.875 25.6094ZM123.631 11C124.569 11 125.376 11.3385 126.053 12.0156C126.73 12.6667 127.069 13.4479 127.069 14.3594C127.069 15.2448 126.73 16.026 126.053 16.7031C125.376 17.3802 124.569 17.7188 123.631 17.7188C122.694 17.7188 121.886 17.3802 121.209 16.7031C120.558 16.026 120.233 15.2448 120.233 14.3594C120.233 13.4479 120.558 12.6667 121.209 12.0156C121.886 11.3385 122.694 11 123.631 11ZM126.522 21.2734V41H121.561V25.4922H118.397V21.2734H126.522ZM147.794 26.8203C146.96 26.3516 146.088 26.1172 145.177 26.1172C144.031 26.1172 143.08 26.4948 142.325 27.25C141.57 27.9792 140.906 28.8906 140.333 29.9844V41H135.372V21.2734H140.333V24.9844C141.01 23.8125 141.804 22.8359 142.716 22.0547C143.653 21.2734 144.708 20.8828 145.88 20.8828C146.583 20.8828 147.221 21 147.794 21.2344V26.8203ZM157.347 21.2734L162.972 33.8516L168.441 21.2734H174.105L159.769 50.375H154.144L160.081 39.5547L151.566 21.2734H157.347Z" fill="#F1F1F1"/>
<line x1="72.5" y1="13" x2="72.5" y2="48" stroke="#F1F1F1" stroke-width="3"/>
</svg>
